<?xml version="1.0" encoding="UTF-8"?>
<svg version="1.1" xmlns="http://www.w3.org/2000/svg" width="1200px" height="1200px">
<path d="M0 0 C22.73763744 -0.02373076 45.47527273 -0.04117062 68.21292019 -0.05181217 C78.77875125 -0.05689225 89.34457436 -0.06380612 99.91040039 -0.07543945 C180.91898097 -0.16230339 180.91898097 -0.16230339 216.3087635 0.26773262 C219.03499417 0.30083425 221.76117076 0.32813164 224.4875164 0.34971428 C237.95608531 0.46858704 250.88238928 0.71003014 264 4 C264.81619308 4.20213104 265.63238617 4.40426208 266.47331238 4.61251831 C300.53386271 13.76132355 328.4101609 35.55506255 346.31640625 65.8671875 C363.46208899 95.98134622 367.91197969 131.49323014 359 165 C354.44084653 180.58331162 347.53682666 195.04941232 337.46875 207.828125 C335.71990544 209.97720197 335.71990544 209.97720197 336 213 C337.10496264 214.17402281 338.22307316 215.33742079 339.390625 216.44921875 C362.54076633 238.75651512 373.13118614 270.1284911 373.95947266 301.64697266 C374.48658447 332.25121137 363.08857034 361.13695928 343 384 C342.30390625 384.82886719 341.6078125 385.65773438 340.890625 386.51171875 C323.35532296 406.89490744 299.28603414 420.42888302 273.5 427.375 C272.1857605 427.73331909 272.1857605 427.73331909 270.8449707 428.09887695 C251.73775997 432.89259558 232.1723749 432.25560079 212.63250732 432.1373291 C208.83054864 432.11656517 205.028562 432.10767129 201.2265625 432.09765625 C193.81763376 432.07645201 186.40884057 432.0424926 179 432 C178.84642735 420.67395182 178.69824558 409.34784738 178.5570364 398.02163792 C178.49130316 392.7630024 178.42367988 387.50440507 178.35180664 382.24584961 C178.28257443 377.17551925 178.21821612 372.10514875 178.15730476 367.03471184 C178.13314168 365.09570996 178.10719205 363.15672954 178.07946587 361.21777534 C178.04107084 358.51183557 178.00890441 355.80589068 177.97827148 353.09985352 C177.96532547 352.28993454 177.95237946 351.48001556 177.93904114 350.64555359 C177.92097825 348.76367938 177.95477124 346.88141733 178 345 C179.79136283 343.20863717 182.47133451 343.86569282 184.88989258 343.8581543 C186.78370415 343.84760262 186.78370415 343.84760262 188.71577454 343.83683777 C189.39587397 343.83502188 190.0759734 343.83320599 190.7766819 343.83133507 C192.90987082 343.82416721 195.04282999 343.80849204 197.1759491 343.78999329 C203.24348513 343.73758538 209.31090539 343.68969404 215.37866211 343.67407227 C219.08889793 343.66389378 222.79856984 343.63430944 226.50858116 343.59275246 C227.91370021 343.58056019 229.31889945 343.57529932 230.7240696 343.57755089 C244.80152998 343.59453288 257.46008532 340.54934461 268.22265625 331.03515625 C275.95774887 323.03981752 279.49240356 313.36014839 280.25 302.375 C280.04720294 291.74843391 276.30028993 281.96430836 269.25390625 274.03515625 C257.47433093 262.8433352 243.76051411 260.71581939 228.21875 260.5859375 C226.79527701 260.56719868 225.37181482 260.54762331 223.94836426 260.5272522 C220.22654623 260.47621116 216.50469229 260.43643674 212.78271484 260.39910889 C208.30374774 260.35180429 203.82495485 260.29032811 199.34613037 260.23126221 C192.56415833 260.14339213 185.78221387 260.07338386 179 260 C178.67 250.1 178.34 240.2 178 230 C171.14841819 235.87278441 164.65835206 241.81089317 158.8125 248.6875 C154.8390784 253.33091307 150.4660265 257.55966796 146.12548828 261.85498047 C142.4631914 265.49375711 138.97356748 269.20251097 135.63671875 273.14453125 C132.96342061 276.17511983 130.04749155 278.95985733 127.171875 281.796875 C125.27233365 283.72374788 123.49977056 285.68838914 121.75 287.75 C117.99009149 292.14241649 113.8757672 296.15101709 109.76757812 300.21289062 C106.23624692 303.71972705 102.89341744 307.31369628 99.671875 311.109375 C97.70245971 313.33647079 95.61625658 315.41214954 93.5 317.5 C90.81673907 320.14730434 88.24743099 322.81096943 85.8125 325.6875 C82.40839997 329.66559348 78.71873343 333.32000338 75 337 C70.74652426 341.20926082 66.63619344 345.44024725 62.76953125 350.01171875 C60.00069444 353.12284002 57.00956889 356.01071079 54.04614258 358.93432617 C51.41927111 361.53953644 48.89984463 364.18479765 46.5 367 C43.65877199 370.33297901 40.61578377 373.42608801 37.5 376.5 C34.40508498 379.55337951 31.38065723 382.62323685 28.5625 385.9375 C25.0662525 390.04032538 21.24765165 393.78005865 17.41577148 397.56469727 C13.95715474 400.99714128 10.69627535 404.53864396 7.52734375 408.2421875 C5.14284671 410.98649356 2.66299142 413.52279868 0 416 C-0.66 416 -1.32 416 -2 416 C-2.16021581 375.75231886 -2.28356441 335.50467927 -2.35745731 295.25674295 C-2.36621227 290.50530858 -2.37527253 285.75387484 -2.38452148 281.00244141 C-2.38635766 280.05651501 -2.38819383 279.11058861 -2.39008565 278.13599777 C-2.42054636 262.81887021 -2.47573917 247.50192651 -2.54006957 232.18490803 C-2.60552625 216.46866841 -2.64441061 200.75252509 -2.65861946 185.03615475 C-2.66822523 175.33790226 -2.69856525 165.64016949 -2.75541527 155.94207698 C-2.79241223 149.29205596 -2.80360186 142.64230367 -2.79450964 135.9921872 C-2.79002511 132.15498473 -2.79690646 128.31869044 -2.83443832 124.4816494 C-2.8748538 120.31936674 -2.86091248 116.15901634 -2.84178162 111.99658203 C-2.86217151 110.78645415 -2.8825614 109.57632627 -2.90356916 108.32952785 C-2.83104194 102.50040644 -2.48713236 98.84395824 1.40466976 94.34106827 C2.5784506 93.20141513 3.77456516 92.08391891 5 91 C5.78113159 90.19028748 6.56226318 89.38057495 7.36706543 88.54632568 C8.06513306 87.86555969 8.76320068 87.1847937 9.48242188 86.48339844 C10.28595093 85.69608337 11.08947998 84.90876831 11.9173584 84.09759521 C12.75931763 83.27648254 13.60127686 82.45536987 14.46875 81.609375 C16.27402226 79.83132268 18.07869279 78.05265925 19.8828125 76.2734375 C22.70608926 73.49364137 25.53194678 70.7167286 28.37011719 67.95214844 C31.1226758 65.26582533 33.85935637 62.56416907 36.59375 59.859375 C37.45190308 59.03016541 38.31005615 58.20095581 39.19421387 57.34661865 C39.97252563 56.57191223 40.7508374 55.79720581 41.55273438 54.99902344 C42.24443726 54.32143982 42.93614014 53.6438562 43.64880371 52.94573975 C45.22707802 51.10689873 45.22707802 51.10689873 44.85231018 48.90919495 C43.51709602 45.91828368 41.24446564 43.85866704 38.93359375 41.60546875 C38.42127701 41.09502518 37.90896027 40.5845816 37.38111877 40.05867004 C36.2942728 38.97854159 35.20383738 37.90201465 34.11010742 36.82885742 C32.46093428 35.21049645 30.82234467 33.58203835 29.18554688 31.95117188 C24.18909424 26.99235417 19.13563054 22.14677962 13.78540039 17.56713867 C10.716888 14.87374594 7.86403782 11.96993233 5 9.0625 C4.41605469 8.47404297 3.83210938 7.88558594 3.23046875 7.27929688 C1.81795195 5.85520207 0.4086219 4.4279475 -1 3 C-0.67 2.01 -0.34 1.02 0 0 Z M132 94 C131.40832031 94.62003906 130.81664062 95.24007812 130.20703125 95.87890625 C129.74683594 96.43449219 129.28664063 96.99007812 128.8125 97.5625 C125.76586998 101.13721256 122.62789405 104.61616982 119.4375 108.0625 C118.93234863 108.60874023 118.42719727 109.15498047 117.90673828 109.71777344 C115.06652497 112.78376307 112.21610056 115.84001774 109.359375 118.890625 C108.74779541 119.54409912 108.13621582 120.19757324 107.50610352 120.87084961 C106.33341391 122.1228835 105.15951284 123.37378433 103.98413086 124.62329102 C101.1200588 127.67945263 98.31184233 130.77018883 95.56640625 133.93359375 C91.90353115 138.14506198 88.09158077 142.20186752 84.25 146.25 C82.84589199 147.73784522 81.44224867 149.22612911 80.0390625 150.71484375 C79.35618164 151.43913574 78.67330078 152.16342773 77.96972656 152.90966797 C75.18019034 155.87000623 72.39329562 158.83227744 69.625 161.8125 C68.77164063 162.72644531 67.91828125 163.64039063 67.0390625 164.58203125 C65.26411457 166.68680667 64.06825853 168.48196204 63 171 C64.90038293 172.90038293 68.27048639 172.14305591 70.79034424 172.15390015 C71.50889863 172.1582824 72.22745302 172.16266465 72.96778178 172.1671797 C75.39421383 172.18061609 77.82060952 172.1867576 80.24707031 172.19287109 C81.97979905 172.20076887 83.71252614 172.20903762 85.44525146 172.21765137 C91.15619321 172.24393048 96.86714246 172.25919461 102.578125 172.2734375 C104.54444127 172.27879662 106.5107575 172.28417412 108.47707367 172.28956985 C116.66255177 172.31121592 124.84802786 172.3299484 133.03352737 172.34119225 C144.75516398 172.35739877 156.4764673 172.39047636 168.19797826 172.44759309 C176.4418701 172.48638763 184.6856732 172.50583675 192.92965388 172.51111281 C197.85032072 172.51475606 202.77063257 172.52666595 207.69120026 172.55921555 C212.33044198 172.58946014 216.9691171 172.59555002 221.60843658 172.58383179 C223.30263387 172.58361235 224.99685866 172.59180875 226.69096375 172.60948563 C238.07280948 172.72168612 248.87442253 171.9939943 258.31640625 164.71875 C259.05761719 163.9865625 259.79882812 163.254375 260.5625 162.5 C261.32691406 161.7678125 262.09132813 161.035625 262.87890625 160.28125 C266.10214137 156.81463985 269.02154689 153.38493445 271.125 149.125 C271.59292969 148.20074219 271.59292969 148.20074219 272.0703125 147.2578125 C276.19945154 137.2299034 276.69358803 125.54326591 273.03515625 115.265625 C268.00542105 104.25714795 260.12626888 96.63357441 249.41796875 91.2265625 C237.73542551 87.03419841 225.41183098 87.63875128 213.171875 87.59375 C212.13157387 87.58809525 211.09127274 87.58244049 210.01944733 87.57661438 C204.52597564 87.54679243 199.03260701 87.52822558 193.5390625 87.51953125 C187.87746578 87.50851687 182.21682011 87.46032304 176.55552292 87.40358734 C172.18541683 87.36632156 167.81554117 87.35592326 163.44528961 87.3528595 C161.35770658 87.34681937 159.270127 87.33080563 157.18270111 87.30448914 C154.26526473 87.27029931 151.35017368 87.27413862 148.43261719 87.28710938 C147.57739471 87.26867981 146.72217224 87.25025024 145.84103394 87.23126221 C139.46673255 87.31984645 136.30435455 89.39445278 132 94 Z " fill="#FEFEFE" transform="translate(454,349)"/>
</svg>
