<?xml version="1.0" encoding="UTF-8"?>
<svg version="1.1" xmlns="http://www.w3.org/2000/svg" width="1200px" height="1200px">
<path d="M0 0 C22.73763744 -0.02373076 45.47527273 -0.04117062 68.21292019 -0.05181217 C78.77875125 -0.05689225 89.34457436 -0.06380612 99.91040039 -0.07543945 C180.91898097 -0.16230339 180.91898097 -0.16230339 216.3087635 0.26773262 C219.03499417 0.30083425 221.76117076 0.32813164 224.4875164 0.34971428 C237.95608531 0.46858704 250.88238928 0.71003014 264 4 C264.81619308 4.20213104 265.63238617 4.40426208 266.47331238 4.61251831 C300.53386271 13.76132355 328.4101609 35.55506255 346.31640625 65.8671875 C363.46208899 95.98134622 367.91197969 131.49323014 359 165 C354.44084653 180.58331162 347.53682666 195.04941232 337.46875 207.828125 C335.71990544 209.97720197 335.71990544 209.97720197 336 213 C337.10496264 214.17402281 338.22307316 215.33742079 339.390625 216.44921875 C362.54076633 238.75651512 373.13118614 270.1284911 373.95947266 301.64697266 C374.48658447 332.25121137 363.08857034 361.13695928 343 384 C342.30390625 384.82886719 341.6078125 385.65773438 340.890625 386.51171875 C323.35532296 406.89490744 299.28603414 420.42888302 273.5 427.375 C272.1857605 427.73331909 272.1857605 427.73331909 270.8449707 428.09887695 C251.73775997 432.89259558 232.1723749 432.25560079 212.63250732 432.1373291 C208.83054864 432.11656517 205.028562 432.10767129 201.2265625 432.09765625 C193.81763376 432.07645201 186.40884057 432.0424926 179 432 C178.84642735 420.67395182 178.69824558 409.34784738 178.5570364 398.02163792 C178.49130316 392.7630024 178.42367988 387.50440507 178.35180664 382.24584961 C178.28257443 377.17551925 178.21821612 372.10514875 178.15730476 367.03471184 C178.13314168 365.09570996 178.10719205 363.15672954 178.07946587 361.21777534 C178.04107084 358.51183557 178.00890441 355.80589068 177.97827148 353.09985352 C177.96532547 352.28993454 177.95237946 351.48001556 177.93904114 350.64555359 C177.92097825 348.76367938 177.95477124 346.88141733 178 345 C179.79136283 343.20863717 182.47133451 343.86569282 184.88989258 343.8581543 C186.78370415 343.84760262 186.78370415 343.84760262 188.71577454 343.83683777 C189.39587397 343.83502188 190.0759734 343.83320599 190.7766819 343.83133507 C192.90987082 343.82416721 195.04282999 343.80849204 197.1759491 343.78999329 C203.24348513 343.73758538 209.31090539 343.68969404 215.37866211 343.67407227 C219.08889793 343.66389378 222.79856984 343.63430944 226.50858116 343.59275246 C227.91370021 343.58056019 229.31889945 343.57529932 230.7240696 343.57755089 C244.80152998 343.59453288 257.46008532 340.54934461 268.22265625 331.03515625 C275.95774887 323.03981752 279.49240356 313.36014839 280.25 302.375 C280.04720294 291.74843391 276.30028993 281.96430836 269.25390625 274.03515625 C257.47433093 262.8433352 243.76051411 260.71581939 228.21875 260.5859375 C226.79527701 260.56719868 225.37181482 260.54762331 223.94836426 260.5272522 C220.22654623 260.47621116 216.50469229 260.43643674 212.78271484 260.39910889 C208.30374774 260.35180429 203.82495485 260.29032811 199.34613037 260.23126221 C192.56415833 260.14339213 185.78221387 260.07338386 179 260 C178.67 250.1 178.34 240.2 178 230 C171.14841819 235.87278441 164.65835206 241.81089317 158.8125 248.6875 C154.8390784 253.33091307 150.4660265 257.55966796 146.12548828 261.85498047 C142.4631914 265.49375711 138.97356748 269.20251097 135.63671875 273.14453125 C132.96342061 276.17511983 130.04749155 278.95985733 127.171875 281.796875 C125.27233365 283.72374788 123.49977056 285.68838914 121.75 287.75 C117.99009149 292.14241649 113.8757672 296.15101709 109.76757812 300.21289062 C106.23624692 303.71972705 102.89341744 307.31369628 99.671875 311.109375 C97.70245971 313.33647079 95.61625658 315.41214954 93.5 317.5 C90.81673907 320.14730434 88.24743099 322.81096943 85.8125 325.6875 C82.40839997 329.66559348 78.71873343 333.32000338 75 337 C70.74652426 341.20926082 66.63619344 345.44024725 62.76953125 350.01171875 C60.00069444 353.12284002 57.00956889 356.01071079 54.04614258 358.93432617 C51.41927111 361.53953644 48.89984463 364.18479765 46.5 367 C43.65877199 370.33297901 40.61578377 373.42608801 37.5 376.5 C34.40508498 379.55337951 31.38065723 382.62323685 28.5625 385.9375 C25.0662525 390.04032538 21.24765165 393.78005865 17.41577148 397.56469727 C13.95715474 400.99714128 10.69627535 404.53864396 7.52734375 408.2421875 C5.14284671 410.98649356 2.66299142 413.52279868 0 416 C-0.66 416 -1.32 416 -2 416 C-2.16021581 375.75231886 -2.28356441 335.50467927 -2.35745731 295.25674295 C-2.36621227 290.50530858 -2.37527253 285.75387484 -2.38452148 281.00244141 C-2.38635766 280.05651501 -2.38819383 279.11058861 -2.39008565 278.13599777 C-2.42054636 262.81887021 -2.47573917 247.50192651 -2.54006957 232.18490803 C-2.60552625 216.46866841 -2.64441061 200.75252509 -2.65861946 185.03615475 C-2.66822523 175.33790226 -2.69856525 165.64016949 -2.75541527 155.94207698 C-2.79241223 149.29205596 -2.80360186 142.64230367 -2.79450964 135.9921872 C-2.79002511 132.15498473 -2.79690646 128.31869044 -2.83443832 124.4816494 C-2.8748538 120.31936674 -2.86091248 116.15901634 -2.84178162 111.99658203 C-2.86217151 110.78645415 -2.8825614 109.57632627 -2.90356916 108.32952785 C-2.83104194 102.50040644 -2.48713236 98.84395824 1.40466976 94.34106827 C2.5784506 93.20141513 3.77456516 92.08391891 5 91 C5.78113159 90.19028748 6.56226318 89.38057495 7.36706543 88.54632568 C8.06513306 87.86555969 8.76320068 87.1847937 9.48242188 86.48339844 C10.28595093 85.69608337 11.08947998 84.90876831 11.9173584 84.09759521 C12.75931763 83.27648254 13.60127686 82.45536987 14.46875 81.609375 C16.27402226 79.83132268 18.07869279 78.05265925 19.8828125 76.2734375 C22.70608926 73.49364137 25.53194678 70.7167286 28.37011719 67.95214844 C31.1226758 65.26582533 33.85935637 62.56416907 36.59375 59.859375 C37.45190308 59.03016541 38.31005615 58.20095581 39.19421387 57.34661865 C39.97252563 56.57191223 40.7508374 55.79720581 41.55273438 54.99902344 C42.24443726 54.32143982 42.93614014 53.6438562 43.64880371 52.94573975 C45.22707802 51.10689873 45.22707802 51.10689873 44.85231018 48.90919495 C43.51709602 45.91828368 41.24446564 43.85866704 38.93359375 41.60546875 C38.42127701 41.09502518 37.90896027 40.5845816 37.38111877 40.05867004 C36.2942728 38.97854159 35.20383738 37.90201465 34.11010742 36.82885742 C32.46093428 35.21049645 30.82234467 33.58203835 29.18554688 31.95117188 C24.18909424 26.99235417 19.13563054 22.14677962 13.78540039 17.56713867 C10.716888 14.87374594 7.86403782 11.96993233 5 9.0625 C4.41605469 8.47404297 3.83210938 7.88558594 3.23046875 7.27929688 C1.81795195 5.85520207 0.4086219 4.4279475 -1 3 C-0.67 2.01 -0.34 1.02 0 0 Z M132 94 C131.40832031 94.62003906 130.81664062 95.24007812 130.20703125 95.87890625 C129.74683594 96.43449219 129.28664063 96.99007812 128.8125 97.5625 C125.76586998 101.13721256 122.62789405 104.61616982 119.4375 108.0625 C118.93234863 108.60874023 118.42719727 109.15498047 117.90673828 109.71777344 C115.06652497 112.78376307 112.21610056 115.84001774 109.359375 118.890625 C108.74779541 119.54409912 108.13621582 120.19757324 107.50610352 120.87084961 C106.33341391 122.1228835 105.15951284 123.37378433 103.98413086 124.62329102 C101.1200588 127.67945263 98.31184233 130.77018883 95.56640625 133.93359375 C91.90353115 138.14506198 88.09158077 142.20186752 84.25 146.25 C82.84589199 147.73784522 81.44224867 149.22612911 80.0390625 150.71484375 C79.35618164 151.43913574 78.67330078 152.16342773 77.96972656 152.90966797 C75.18019034 155.87000623 72.39329562 158.83227744 69.625 161.8125 C68.77164063 162.72644531 67.91828125 163.64039063 67.0390625 164.58203125 C65.26411457 166.68680667 64.06825853 168.48196204 63 171 C64.90038293 172.90038293 68.27048639 172.14305591 70.79034424 172.15390015 C71.50889863 172.1582824 72.22745302 172.16266465 72.96778178 172.1671797 C75.39421383 172.18061609 77.82060952 172.1867576 80.24707031 172.19287109 C81.97979905 172.20076887 83.71252614 172.20903762 85.44525146 172.21765137 C91.15619321 172.24393048 96.86714246 172.25919461 102.578125 172.2734375 C104.54444127 172.27879662 106.5107575 172.28417412 108.47707367 172.28956985 C116.66255177 172.31121592 124.84802786 172.3299484 133.03352737 172.34119225 C144.75516398 172.35739877 156.4764673 172.39047636 168.19797826 172.44759309 C176.4418701 172.48638763 184.6856732 172.50583675 192.92965388 172.51111281 C197.85032072 172.51475606 202.77063257 172.52666595 207.69120026 172.55921555 C212.33044198 172.58946014 216.9691171 172.59555002 221.60843658 172.58383179 C223.30263387 172.58361235 224.99685866 172.59180875 226.69096375 172.60948563 C238.07280948 172.72168612 248.87442253 171.9939943 258.31640625 164.71875 C259.05761719 163.9865625 259.79882812 163.254375 260.5625 162.5 C261.32691406 161.7678125 262.09132813 161.035625 262.87890625 160.28125 C266.10214137 156.81463985 269.02154689 153.38493445 271.125 149.125 C271.59292969 148.20074219 271.59292969 148.20074219 272.0703125 147.2578125 C276.19945154 137.2299034 276.69358803 125.54326591 273.03515625 115.265625 C268.00542105 104.25714795 260.12626888 96.63357441 249.41796875 91.2265625 C237.73542551 87.03419841 225.41183098 87.63875128 213.171875 87.59375 C212.13157387 87.58809525 211.09127274 87.58244049 210.01944733 87.57661438 C204.52597564 87.54679243 199.03260701 87.52822558 193.5390625 87.51953125 C187.87746578 87.50851687 182.21682011 87.46032304 176.55552292 87.40358734 C172.18541683 87.36632156 167.81554117 87.35592326 163.44528961 87.3528595 C161.35770658 87.34681937 159.270127 87.33080563 157.18270111 87.30448914 C154.26526473 87.27029931 151.35017368 87.27413862 148.43261719 87.28710938 C147.57739471 87.26867981 146.72217224 87.25025024 145.84103394 87.23126221 C139.46673255 87.31984645 136.30435455 89.39445278 132 94 Z " fill="#FEFEFE" transform="translate(454,349)"/>
<path d="M0 0 C59.07 0 118.14 0 179 0 C179 29.37 179 58.74 179 89 C165.8 89 152.6 89 139 89 C134.05710897 93.04555422 134.05710897 93.04555422 129.875 97.5 C126.80543626 101.09347178 123.64752969 104.59458209 120.4375 108.0625 C119.9324292 108.60865967 119.4273584 109.15481934 118.90698242 109.7175293 C116.06667358 112.78358714 113.21617916 115.83993381 110.359375 118.890625 C109.74779541 119.54409912 109.13621582 120.19757324 108.50610352 120.87084961 C107.33341391 122.1228835 106.15951284 123.37378433 104.98413086 124.62329102 C102.1200588 127.67945263 99.31184233 130.77018883 96.56640625 133.93359375 C92.90353115 138.14506198 89.09158077 142.20186752 85.25 146.25 C83.84589199 147.73784522 82.44224867 149.22612911 81.0390625 150.71484375 C80.35618164 151.43913574 79.67330078 152.16342773 78.96972656 152.90966797 C76.18019034 155.87000623 73.39329562 158.83227744 70.625 161.8125 C69.77164063 162.72644531 68.91828125 163.64039063 68.0390625 164.58203125 C65.75524633 167.09828981 65.75524633 167.09828981 64 171 C101.95 171.33 139.9 171.66 179 172 C179 191.14 179 210.28 179 230 C177.02 230.99 177.02 230.99 175 232 C173.43637843 233.27710992 173.43637843 233.27710992 172.01171875 234.7578125 C171.47426025 235.29656006 170.93680176 235.83530762 170.38305664 236.39038086 C169.82352295 236.96280518 169.26398926 237.53522949 168.6875 238.125 C168.10282959 238.71611572 167.51815918 239.30723145 166.91577148 239.91625977 C163.46774797 243.42579506 160.18412654 247.02324912 157.00390625 250.77734375 C153.53572522 254.62411764 149.80505529 258.21374247 146.12451172 261.85595703 C142.46253835 265.49439965 138.97326638 269.20286667 135.63671875 273.14453125 C132.96342061 276.17511983 130.04749155 278.95985733 127.171875 281.796875 C125.27233365 283.72374788 123.49977056 285.68838914 121.75 287.75 C117.99009149 292.14241649 113.8757672 296.15101709 109.76757812 300.21289062 C106.23624692 303.71972705 102.89341744 307.31369628 99.671875 311.109375 C97.70245971 313.33647079 95.61625658 315.41214954 93.5 317.5 C90.81673907 320.14730434 88.24743099 322.81096943 85.8125 325.6875 C82.40839997 329.66559348 78.71873343 333.32000338 75 337 C70.74652426 341.20926082 66.63619344 345.44024725 62.76953125 350.01171875 C60.00069444 353.12284002 57.00956889 356.01071079 54.04614258 358.93432617 C51.41927111 361.53953644 48.89984463 364.18479765 46.5 367 C43.65877199 370.33297901 40.61578377 373.42608801 37.5 376.5 C34.40508498 379.55337951 31.38065723 382.62323685 28.5625 385.9375 C25.0662525 390.04032538 21.24765165 393.78005865 17.41577148 397.56469727 C13.95715474 400.99714128 10.69627535 404.53864396 7.52734375 408.2421875 C5.14284671 410.98649356 2.66299142 413.52279868 0 416 C-0.66 416 -1.32 416 -2 416 C-2.16021581 375.75231886 -2.28356441 335.50467927 -2.35745731 295.25674295 C-2.36621227 290.50530858 -2.37527253 285.75387484 -2.38452148 281.00244141 C-2.38635766 280.05651501 -2.38819383 279.11058861 -2.39008565 278.13599777 C-2.42054636 262.81887021 -2.47573917 247.50192651 -2.54006957 232.18490803 C-2.60552625 216.46866841 -2.64441061 200.75252509 -2.65861946 185.03615475 C-2.66822523 175.33790226 -2.69856525 165.64016949 -2.75541527 155.94207698 C-2.79241223 149.29205596 -2.80360186 142.64230367 -2.79450964 135.9921872 C-2.79002511 132.15498473 -2.79690646 128.31869044 -2.83443832 124.4816494 C-2.8748538 120.31936674 -2.86091248 116.15901634 -2.84178162 111.99658203 C-2.86217151 110.78645415 -2.8825614 109.57632627 -2.90356916 108.32952785 C-2.83104194 102.50040644 -2.48713236 98.84395824 1.40466976 94.34106827 C2.5784506 93.20141513 3.77456516 92.08391891 5 91 C5.78113159 90.19028748 6.56226318 89.38057495 7.36706543 88.54632568 C8.06513306 87.86555969 8.76320068 87.1847937 9.48242188 86.48339844 C10.28595093 85.69608337 11.08947998 84.90876831 11.9173584 84.09759521 C12.75931763 83.27648254 13.60127686 82.45536987 14.46875 81.609375 C16.27402226 79.83132268 18.07869279 78.05265925 19.8828125 76.2734375 C22.70608926 73.49364137 25.53194678 70.7167286 28.37011719 67.95214844 C31.1226758 65.26582533 33.85935637 62.56416907 36.59375 59.859375 C37.45190308 59.03016541 38.31005615 58.20095581 39.19421387 57.34661865 C39.97252563 56.57191223 40.7508374 55.79720581 41.55273438 54.99902344 C42.24443726 54.32143982 42.93614014 53.6438562 43.64880371 52.94573975 C45.22707802 51.10689873 45.22707802 51.10689873 44.85231018 48.90919495 C43.51709602 45.91828368 41.24446564 43.85866704 38.93359375 41.60546875 C38.42127701 41.09502518 37.90896027 40.5845816 37.38111877 40.05867004 C36.2942728 38.97854159 35.20383738 37.90201465 34.11010742 36.82885742 C32.46093428 35.21049645 30.82234467 33.58203835 29.18554688 31.95117188 C24.18909424 26.99235417 19.13563054 22.14677962 13.78540039 17.56713867 C10.716888 14.87374594 7.86403782 11.96993233 5 9.0625 C4.41605469 8.47404297 3.83210938 7.88558594 3.23046875 7.27929688 C1.81795195 5.85520207 0.4086219 4.4279475 -1 3 C-0.67 2.01 -0.34 1.02 0 0 Z " fill="#238784" transform="translate(454,349)"/>
<path d="M0 0 C1.37376679 0.00398964 2.74753489 0.01873698 4.12109375 0.04296875 C4.81912109 0.04361328 5.51714844 0.04425781 6.23632812 0.04492188 C11.41828217 0.09015717 11.41828217 0.09015717 12.55859375 1.23046875 C12.65137705 2.6120699 12.67606418 3.99834913 12.67211914 5.38305664 C12.67204361 6.2638942 12.67196808 7.14473175 12.67189026 8.05226135 C12.66672897 9.00954636 12.66156769 9.96683136 12.65625 10.953125 C12.65483505 11.92833603 12.6534201 12.90354706 12.65196228 13.90830994 C12.64634508 17.03656018 12.63378968 20.16473998 12.62109375 23.29296875 C12.61608097 25.40820209 12.61151768 27.52343656 12.60742188 29.63867188 C12.59637006 34.83596171 12.57961521 40.0332102 12.55859375 45.23046875 C13.72430908 45.22261353 13.72430908 45.22261353 14.91357422 45.21459961 C18.42023924 45.19386719 21.92689138 45.18082054 25.43359375 45.16796875 C27.26857422 45.15540039 27.26857422 45.15540039 29.140625 45.14257812 C30.89052734 45.13774414 30.89052734 45.13774414 32.67578125 45.1328125 C34.29395752 45.12495728 34.29395752 45.12495728 35.94482422 45.11694336 C38.55859375 45.23046875 38.55859375 45.23046875 40.55859375 46.23046875 C40.55859375 48.87046875 40.55859375 51.51046875 40.55859375 54.23046875 C42.70969971 49.39676617 44.86013541 44.56276611 47.01000977 39.72851562 C47.73802575 38.09171942 48.46620968 36.4549979 49.19458008 34.81835938 C50.25518753 32.43510344 51.31521513 30.05159057 52.375 27.66796875 C52.72406403 26.88333252 53.07312805 26.09869629 53.43276978 25.2902832 C55.17457215 21.36924482 56.90474133 17.44368181 58.61279297 13.5078125 C59.0965464 12.39418335 59.0965464 12.39418335 59.59007263 11.25805664 C60.19920898 9.85322603 60.8062896 8.44750174 61.411026 7.04077148 C63.44881899 2.34024351 63.44881899 2.34024351 64.55859375 1.23046875 C67.42126942 1.15721707 70.25931275 1.1380867 73.12109375 1.16796875 C73.92740234 1.17248047 74.73371094 1.17699219 75.56445312 1.18164062 C77.56253131 1.19346357 79.56057158 1.21139961 81.55859375 1.23046875 C84.88588815 7.74904032 87.99876292 14.32291652 90.9140625 21.03515625 C91.49562859 22.36475876 91.49562859 22.36475876 92.08894348 23.72122192 C93.31046644 26.51489858 94.52849049 29.31008178 95.74609375 32.10546875 C96.97496792 34.92203005 98.20460024 37.73825604 99.43537903 40.5539856 C100.19677422 42.29634695 100.95699011 44.03922426 101.71586609 45.78268433 C102.0599501 46.57095612 102.40403412 47.35922791 102.75854492 48.17138672 C103.05879074 48.86070282 103.35903656 49.55001892 103.66838074 50.26022339 C104.28682403 51.6289801 104.95903557 52.974188 105.6710968 54.29666138 C106.55859375 56.23046875 106.55859375 56.23046875 106.55859375 59.23046875 C103.49326211 60.76313457 100.29105103 60.33323346 96.93359375 60.29296875 C96.2271875 60.28845703 95.52078125 60.28394531 94.79296875 60.27929688 C93.048141 60.2675075 91.30335675 60.24957199 89.55859375 60.23046875 C87.57859375 56.60046875 85.59859375 52.97046875 83.55859375 49.23046875 C76.29859375 49.23046875 69.03859375 49.23046875 61.55859375 49.23046875 C60.75421875 50.85984375 59.94984375 52.48921875 59.12109375 54.16796875 C56.68359375 59.10546875 56.68359375 59.10546875 55.55859375 60.23046875 C53.68678435 60.32433256 51.81141315 60.34790679 49.93725586 60.34399414 C48.73608627 60.34391861 47.53491669 60.34384308 46.29734802 60.34376526 C44.99008255 60.33860397 43.68281708 60.33344269 42.3359375 60.328125 C40.99215243 60.32626073 39.64836668 60.32483687 38.30458069 60.32383728 C34.76177098 60.32001277 31.21900205 60.31018307 27.6762085 60.2991333 C24.06344148 60.28891774 20.45066791 60.28433935 16.83789062 60.27929688 C9.74477495 60.26856073 2.65168701 60.25148511 -4.44140625 60.23046875 C-4.61828016 52.70298805 -4.78424178 45.17533443 -4.93618202 37.64731026 C-5.00707517 34.15193475 -5.0817592 30.65672516 -5.16503906 27.16162109 C-5.26056412 23.14569122 -5.3397215 19.12958517 -5.41796875 15.11328125 C-5.4501651 13.85492462 -5.48236145 12.59656799 -5.51553345 11.30007935 C-5.53570526 10.13902679 -5.55587708 8.97797424 -5.57666016 7.78173828 C-5.59886627 6.75581573 -5.62107239 5.72989319 -5.64395142 4.67288208 C-5.30430331 0.5771977 -3.95082308 0.26458407 0 0 Z M72.55859375 19.23046875 C69.58859375 27.15046875 69.58859375 27.15046875 66.55859375 35.23046875 C70.51859375 35.23046875 74.47859375 35.23046875 78.55859375 35.23046875 C77.95223142 29.47002663 75.80201096 24.51032506 73.55859375 19.23046875 C73.22859375 19.23046875 72.89859375 19.23046875 72.55859375 19.23046875 Z " fill="#FEFEFE" transform="translate(608.44140625,819.76953125)"/>
<path d="M0 0 C0.79945038 0.01649597 1.59890076 0.03299194 2.4225769 0.04998779 C4.11902477 0.08752924 5.81540825 0.12808076 7.51171875 0.17138672 C10.08586298 0.23361772 12.65981748 0.27539123 15.234375 0.31640625 C16.88544719 0.3555022 18.53649079 0.39582881 20.1875 0.4375 C20.94926544 0.44702698 21.71103088 0.45655396 22.49588013 0.46636963 C29.07419943 0.67278014 34.52828844 2.10966919 39.8671875 6.171875 C42.51549297 9.67698517 43.66704275 12.60742649 43.9921875 16.984375 C43.1304523 22.06861266 41.44603484 25.18514292 37.9921875 28.984375 C38.48589844 29.38269531 38.97960937 29.78101563 39.48828125 30.19140625 C40.12894531 30.72121094 40.76960938 31.25101563 41.4296875 31.796875 C42.06777344 32.31894531 42.70585937 32.84101562 43.36328125 33.37890625 C46.21510137 36.18969299 46.25352355 39.4121511 46.4296875 43.234375 C46.37555834 48.34958081 45.40927976 51.03738779 41.76953125 54.6171875 C34.88601517 59.91219987 26.89757664 60.13957309 18.56640625 60.1171875 C17.38411186 60.11862259 17.38411186 60.11862259 16.17793274 60.12008667 C14.52316202 60.12076379 12.86838858 60.11894232 11.21362305 60.11474609 C8.67035052 60.10935521 6.12725172 60.11472517 3.58398438 60.12109375 C1.97395794 60.12043359 0.36393162 60.11915371 -1.24609375 60.1171875 C-2.00956619 60.11921173 -2.77303864 60.12123596 -3.55964661 60.12332153 C-8.89283708 60.09935042 -8.89283708 60.09935042 -10.0078125 58.984375 C-10.10157303 57.17382475 -10.1252536 55.35960299 -10.12133789 53.54663086 C-10.12126236 52.38550278 -10.12118683 51.22437469 -10.12110901 50.02806091 C-10.11594772 48.764543 -10.11078644 47.50102509 -10.10546875 46.19921875 C-10.1040538 44.91326309 -10.10263885 43.62730743 -10.10118103 42.30238342 C-10.09735668 38.87794057 -10.08752712 35.45353991 -10.07647705 32.02911377 C-10.06626114 28.53699311 -10.06168303 25.04486566 -10.05664062 21.55273438 C-10.04590477 14.69659722 -10.02882934 7.84048813 -10.0078125 0.984375 C-6.84417081 -0.59744584 -3.46645997 -0.07894004 0 0 Z M7.9921875 13.984375 C7.9921875 17.284375 7.9921875 20.584375 7.9921875 23.984375 C10.05402383 24.06588244 12.11680099 24.1237944 14.1796875 24.171875 C15.90251953 24.22408203 15.90251953 24.22408203 17.66015625 24.27734375 C21.26257949 23.96060079 23.08585589 23.06970898 25.9921875 20.984375 C25.64991178 18.01371991 25.64991178 18.01371991 24.9921875 14.984375 C21.92685586 13.45170918 18.72464478 13.88161029 15.3671875 13.921875 C14.30757813 13.92864258 14.30757813 13.92864258 13.2265625 13.93554688 C11.48173475 13.94733625 9.7369505 13.96527176 7.9921875 13.984375 Z M7.9921875 35.984375 C7.9921875 39.614375 7.9921875 43.244375 7.9921875 46.984375 C10.38832876 47.03862726 12.78322603 47.07816527 15.1796875 47.109375 C15.85322266 47.12613281 16.52675781 47.14289062 17.22070312 47.16015625 C21.25177391 47.19948377 24.43366396 46.95163424 27.9921875 44.984375 C29.07243408 42.58327283 29.07243408 42.58327283 28.9921875 39.984375 C27.26992254 36.73587523 27.26992254 36.73587523 23.9921875 35.984375 C21.25353463 35.91386386 18.54191162 35.89079735 15.8046875 35.921875 C14.68030273 35.92864258 14.68030273 35.92864258 13.53320312 35.93554688 C11.68616367 35.94731146 9.83916537 35.96524635 7.9921875 35.984375 Z " fill="#FEFEFE" transform="translate(461.0078125,820.015625)"/>
<path d="M0 0 C0.73190552 -0.00570007 1.46381104 -0.01140015 2.21789551 -0.01727295 C3.7748062 -0.02674361 5.33173712 -0.03326509 6.88867188 -0.03710938 C9.2438617 -0.04672239 11.59814375 -0.07768476 13.953125 -0.109375 C23.28991962 -0.1755837 30.92923913 0.18206163 39.09375 5.265625 C43.50213459 10.08409188 45.44066676 15.38114955 46.21875 21.828125 C45.14824908 30.08627494 41.63727192 35.39701235 35.78125 41.203125 C36.503125 42.26273438 37.225 43.32234375 37.96875 44.4140625 C38.90649162 45.8019201 39.84397848 47.18994988 40.78125 48.578125 C41.25820313 49.27679687 41.73515625 49.97546875 42.2265625 50.6953125 C42.90332031 51.70078125 42.90332031 51.70078125 43.59375 52.7265625 C44.22216797 53.653479 44.22216797 53.653479 44.86328125 54.59912109 C45.78125 56.203125 45.78125 56.203125 45.78125 58.203125 C40.76126737 60.71311631 34.19261274 60.08986091 28.78125 59.203125 C25.46589011 56.72736923 23.69783168 53.82988725 21.78125 50.203125 C20.5499653 47.93737806 19.43754781 46.22173795 17.78125 44.203125 C14.19775868 43.99987078 14.19775868 43.99987078 10.78125 44.203125 C10.69037109 45.70166016 10.69037109 45.70166016 10.59765625 47.23046875 C10.51386719 48.52082031 10.43007813 49.81117188 10.34375 51.140625 C10.26253906 52.42839844 10.18132813 53.71617187 10.09765625 55.04296875 C9.78125 58.203125 9.78125 58.203125 8.78125 59.203125 C6.08470146 59.27632121 3.41433542 59.29555037 0.71875 59.265625 C-0.41916992 59.25885742 -0.41916992 59.25885742 -1.58007812 59.25195312 C-3.45966871 59.2401318 -5.33921899 59.22219578 -7.21875 59.203125 C-8.51210514 56.61641472 -8.34581076 54.74765716 -8.34814453 51.85131836 C-8.35287277 50.17464333 -8.35287277 50.17464333 -8.35769653 48.46409607 C-8.3556723 47.25262405 -8.35364807 46.04115204 -8.3515625 44.79296875 C-8.35251923 43.5551918 -8.35347595 42.31741486 -8.35446167 41.04212952 C-8.35531799 37.7496059 -8.35128316 34.4571292 -8.34570312 31.16461182 C-8.34375057 29.14122012 -8.34569773 27.11787174 -8.34912109 25.09448242 C-8.35527249 21.22312381 -8.35455714 17.35182997 -8.3515625 13.48046875 C-8.35358673 12.2669725 -8.35561096 11.05347626 -8.35769653 9.8032074 C-8.35454437 8.6885762 -8.35139221 7.57394501 -8.34814453 6.42553711 C-8.34734894 5.43895615 -8.34655334 4.45237518 -8.34573364 3.43589783 C-8.07223407 -1.3730871 -3.82180029 0.02286621 0 0 Z M9.78125 14.203125 C9.75439905 16.68236301 9.73448453 19.1613134 9.71875 21.640625 C9.71037109 22.34767578 9.70199219 23.05472656 9.69335938 23.78320312 C9.68471412 25.59006059 9.72904989 27.39700103 9.78125 29.203125 C11.34220477 30.76407977 12.87125895 30.37274428 15.03125 30.390625 C19.78961411 30.32264837 23.03336148 29.77622467 26.65625 26.515625 C28.33159251 23.07186539 27.77169279 20.83474857 26.78125 17.203125 C24.3692679 14.69328205 23.04813507 14.22729937 19.546875 13.91015625 C17.80664062 13.96236328 17.80664062 13.96236328 16.03125 14.015625 C14.86078125 14.04269531 13.6903125 14.06976562 12.484375 14.09765625 C11.59234375 14.13246094 10.7003125 14.16726563 9.78125 14.203125 Z " fill="#FEFEFE" transform="translate(550.21875,820.796875)"/>
<path d="M0 0 C1.89105469 0.00966797 1.89105469 0.00966797 3.8203125 0.01953125 C6.875 0.1875 6.875 0.1875 7.875 1.1875 C7.96185603 2.74922745 7.98202219 4.31479344 7.97265625 5.87890625 C7.97015869 6.72912354 7.96766113 7.57934082 7.96508789 8.45532227 C7.95598389 9.54256592 7.94687988 10.62980957 7.9375 11.75 C7.916875 15.194375 7.89625 18.63875 7.875 22.1875 C14.805 22.1875 21.735 22.1875 28.875 22.1875 C28.875 15.2575 28.875 8.3275 28.875 1.1875 C32.67431441 0.2376714 35.67142034 0.05378538 39.5625 0.0625 C40.72136719 0.05992187 41.88023437 0.05734375 43.07421875 0.0546875 C45.875 0.1875 45.875 0.1875 46.875 1.1875 C46.97399561 2.99259373 47.00299151 4.80156928 47.00439453 6.609375 C47.00754669 7.76727539 47.01069885 8.92517578 47.01394653 10.11816406 C47.0119223 11.37854492 47.00989807 12.63892578 47.0078125 13.9375 C47.00876923 15.22108398 47.00972595 16.50466797 47.01071167 17.82714844 C47.01218831 20.54753824 47.01003519 23.26789525 47.00537109 25.98828125 C46.99967381 29.48234669 47.00295299 32.97633533 47.00894356 36.47039795 C47.01341754 39.79277153 47.01028885 43.11512423 47.0078125 46.4375 C47.00983673 47.69788086 47.01186096 48.95826172 47.01394653 50.25683594 C47.00921829 51.99368652 47.00921829 51.99368652 47.00439453 53.765625 C47.00359894 54.79075195 47.00280334 55.81587891 47.00198364 56.87207031 C46.875 59.1875 46.875 59.1875 45.875 60.1875 C43.1976862 60.28731214 40.55195825 60.32629875 37.875 60.3125 C36.74964844 60.31830078 36.74964844 60.31830078 35.6015625 60.32421875 C30.00161053 60.31411053 30.00161053 60.31411053 28.875 59.1875 C28.71813751 57.62801458 28.62423361 56.06207332 28.55859375 54.49609375 C28.51669922 53.55185547 28.47480469 52.60761719 28.43164062 51.63476562 C28.39232422 50.64154297 28.35300781 49.64832031 28.3125 48.625 C28.26931641 47.62791016 28.22613281 46.63082031 28.18164062 45.60351562 C28.07519833 43.13168889 27.97456241 40.6596134 27.875 38.1875 C21.275 37.8575 14.675 37.5275 7.875 37.1875 C7.88660156 38.76402344 7.89820313 40.34054687 7.91015625 41.96484375 C7.91953243 44.01822799 7.92863282 46.0716135 7.9375 48.125 C7.94587891 49.16591797 7.95425781 50.20683594 7.96289062 51.27929688 C7.96772461 52.76333008 7.96772461 52.76333008 7.97265625 54.27734375 C7.98051147 55.65200806 7.98051147 55.65200806 7.98852539 57.05444336 C7.875 59.1875 7.875 59.1875 6.875 60.1875 C4.1976862 60.28731214 1.55195825 60.32629875 -1.125 60.3125 C-2.25035156 60.31830078 -2.25035156 60.31830078 -3.3984375 60.32421875 C-8.99838947 60.31411053 -8.99838947 60.31411053 -10.125 59.1875 C-10.23440011 57.4186628 -10.27408475 55.64546716 -10.28613281 53.87329102 C-10.29574036 52.73863907 -10.3053479 51.60398712 -10.31524658 50.43495178 C-10.31949646 49.19958176 -10.32374634 47.96421173 -10.328125 46.69140625 C-10.33382507 45.43238998 -10.33952515 44.17337372 -10.34539795 42.87620544 C-10.35486507 40.20706562 -10.36175317 37.53803873 -10.36523438 34.86889648 C-10.37072286 31.4442845 -10.39475469 28.02006939 -10.42320633 24.59558201 C-10.44627892 21.33588652 -10.44827879 18.07617201 -10.453125 14.81640625 C-10.4654718 13.58306046 -10.4778186 12.34971466 -10.49053955 11.07899475 C-10.48753845 9.94119064 -10.48453735 8.80338654 -10.48144531 7.63110352 C-10.48509094 6.62596207 -10.48873657 5.62082062 -10.49249268 4.58522034 C-10.37122009 3.79397263 -10.24994751 3.00272491 -10.125 2.1875 C-6.411007 -0.28849533 -4.41782091 -0.04989325 0 0 Z " fill="#FEFEFE" transform="translate(782.125,819.8125)"/>
<path d="M0 0 C-0.59237242 4.85745385 -1.79164031 8.66821752 -4 13 C-4.99 13.33 -5.98 13.66 -7 14 C-7.94875 13.525625 -8.8975 13.05125 -9.875 12.5625 C-15.24888812 10.00903264 -21.1953305 10.76432169 -27 11 C-27.66 12.32 -28.32 13.64 -29 15 C-24.60414908 17.39404804 -20.49100325 18.74127141 -15.625 19.875 C-8.39071729 21.6950677 -2.43932087 23.56970502 2 29.8125 C3.69969244 35.23026966 3.50223191 39.28650289 1.9375 44.625 C-1.22264242 50.12976421 -5.77625698 54.28847067 -12 56 C-23.54026536 58.2192818 -37.00199916 57.70918477 -47 51 C-46.50269348 46.02693484 -45.44697666 42.36200187 -43 38 C-39.49849919 38.4376876 -36.52500694 39.15827016 -33.3125 40.5625 C-28.35947899 42.51311059 -23.25448476 42.65362735 -18 42 C-17.01 41.34 -16.02 40.68 -15 40 C-16.16914252 36.95973811 -16.16914252 36.95973811 -18.75244141 35.16625977 C-19.79150635 34.93120728 -19.79150635 34.93120728 -20.8515625 34.69140625 C-21.61718506 34.50441162 -22.38280762 34.31741699 -23.17163086 34.12475586 C-23.98124268 33.93921143 -24.79085449 33.75366699 -25.625 33.5625 C-33.21152335 31.64438659 -39.47189039 29.86953957 -44.9375 23.875 C-47.46366625 19.41705955 -47.69483177 14.98501396 -47 10 C-44.90965193 4.52016229 -41.3838772 0.77484902 -36.2734375 -2.02734375 C-24.70557769 -6.97647965 -11.16176785 -5.24834421 0 0 Z " fill="#FEFEFE" transform="translate(763,824)"/>
<path d="M0 0 C5.61 0 11.22 0 17 0 C17 19.14 17 38.28 17 58 C14.01316593 59.49341703 11.25600226 59.13175178 7.9375 59.125 C6.66777344 59.12757813 5.39804687 59.13015625 4.08984375 59.1328125 C1 59 1 59 0 58 C-0.09376053 56.18944975 -0.1174411 54.37522799 -0.11352539 52.56225586 C-0.11344986 51.40112778 -0.11337433 50.23999969 -0.11329651 49.04368591 C-0.10813522 47.780168 -0.10297394 46.51665009 -0.09765625 45.21484375 C-0.0962413 43.92888809 -0.09482635 42.64293243 -0.09336853 41.31800842 C-0.08954418 37.89356557 -0.07971462 34.46916491 -0.06866455 31.04473877 C-0.05844864 27.55261811 -0.05387053 24.06049066 -0.04882812 20.56835938 C-0.03809226 13.71222047 -0.02049614 6.8561166 0 0 Z " fill="#FEFEFE" transform="translate(515,821)"/>
<path d="M0 0 C1.24394531 -0.03738281 2.48789062 -0.07476563 3.76953125 -0.11328125 C7.1875 0.3125 7.1875 0.3125 9.625 2.0703125 C11.35199239 4.54854658 11.6136281 5.54212149 11.375 8.5 C11.2821875 10.3871875 11.2821875 10.3871875 11.1875 12.3125 C11.5175 12.6425 11.8475 12.9725 12.1875 13.3125 C12.5625 16.6875 12.5625 16.6875 12.1875 20.3125 C8.25092586 23.56574429 4.92455947 23.66683179 -0.0625 23.5625 C-1.30515625 23.54703125 -2.5478125 23.5315625 -3.828125 23.515625 C-6.8125 23.3125 -6.8125 23.3125 -7.8125 22.3125 C-7.91149523 20.76294441 -7.94329524 19.20896327 -7.9453125 17.65625 C-7.94660156 16.71652344 -7.94789063 15.77679687 -7.94921875 14.80859375 C-7.94535156 13.81988281 -7.94148438 12.83117187 -7.9375 11.8125 C-7.94136719 10.82378906 -7.94523437 9.83507812 -7.94921875 8.81640625 C-7.94792969 7.87667969 -7.94664062 6.93695312 -7.9453125 5.96875 C-7.94418457 5.10056641 -7.94305664 4.23238281 -7.94189453 3.33789062 C-7.65354694 -1.17556526 -3.71485451 0.07269025 0 0 Z M-3.8125 4.3125 C-3.8125 5.9625 -3.8125 7.6125 -3.8125 9.3125 C-0.5125 9.3125 2.7875 9.3125 6.1875 9.3125 C6.5175 8.3225 6.8475 7.3325 7.1875 6.3125 C6.13119738 4.66679841 6.13119738 4.66679841 4.1875 3.3125 C-0.11949045 2.68727618 -0.11949045 2.68727618 -3.8125 4.3125 Z M-3.8125 14.3125 C-3.85313832 15.97867115 -3.855221 17.64638095 -3.8125 19.3125 C-2.18759046 19.33948189 -0.56255367 19.35888757 1.0625 19.375 C2.41988281 19.39240234 2.41988281 19.39240234 3.8046875 19.41015625 C6.2043585 19.47499257 6.2043585 19.47499257 8.1875 18.3125 C7.68993908 15.55608584 7.68993908 15.55608584 6.1875 13.3125 C4.69011876 13.2145943 3.18807108 13.18275136 1.6875 13.1875 C0.8728125 13.18492187 0.058125 13.18234375 -0.78125 13.1796875 C-2.80780377 13.0879822 -2.80780377 13.0879822 -3.8125 14.3125 Z " fill="#FEFEFE" transform="translate(519.8125,906.6875)"/>
<path d="M0 0 C2.4178712 -0.10826289 4.83087556 -0.18739789 7.25 -0.25 C8.27287109 -0.30027344 8.27287109 -0.30027344 9.31640625 -0.3515625 C12.803692 -0.41927679 14.64471919 -0.26702276 17.46875 1.85546875 C19.34783419 4.48714534 19.32513261 5.82995703 19 9 C18.7763932 11.9254644 18.7763932 11.9254644 20 14 C20.375 16.9375 20.375 16.9375 20 20 C16.02536829 23.21720189 12.75394046 23.35468495 7.75 23.25 C6.50734375 23.23453125 5.2646875 23.2190625 3.984375 23.203125 C1 23 1 23 0 22 C-0.08700342 20.36527118 -0.10701063 18.72685945 -0.09765625 17.08984375 C-0.09443359 16.10048828 -0.09121094 15.11113281 -0.08789062 14.09179688 C-0.07951172 13.05087891 -0.07113281 12.00996094 -0.0625 10.9375 C-0.05798828 9.89271484 -0.05347656 8.84792969 -0.04882812 7.77148438 C-0.03699913 5.1809334 -0.02051689 2.59049441 0 0 Z M4 4 C3.95936168 5.66617115 3.957279 7.33388095 4 9 C8.77762638 10.01687046 8.77762638 10.01687046 13.4375 9.0625 C13.953125 8.711875 14.46875 8.36125 15 8 C14.65213292 6.02463255 14.65213292 6.02463255 14 4 C11.30891695 2.65445847 6.3130459 1.6869541 4 4 Z M4 14 C4 15.65 4 17.3 4 19 C7.3 19 10.6 19 14 19 C14.66 17.68 15.32 16.36 16 15 C14.21630633 12.79837644 14.21630633 12.79837644 11.87109375 12.76953125 C10.66646484 12.79080078 10.66646484 12.79080078 9.4375 12.8125 C8.63183594 12.81894531 7.82617188 12.82539062 6.99609375 12.83203125 C5.00120115 12.78369088 5.00120115 12.78369088 4 14 Z " fill="#FEFEFE" transform="translate(749,907)"/>
<path d="M0 0 C5.53093949 1.1061879 5.99664632 1.61641385 9.1875 5.875 C9.86167969 6.75929688 10.53585937 7.64359375 11.23046875 8.5546875 C12.52465598 10.34312284 13.77545342 12.16318013 15 14 C15.33 9.38 15.66 4.76 16 0 C17.32 0 18.64 0 20 0 C20 7.59 20 15.18 20 23 C14.21914495 21.84382899 12.88952316 19.93930737 9.6875 15.4375 C9.23310547 14.82197266 8.77871094 14.20644531 8.31054688 13.57226562 C7.19475681 12.05714017 6.09569629 10.52971967 5 9 C4.67 13.62 4.34 18.24 4 23 C2.68 23 1.36 23 0 23 C0 15.41 0 7.82 0 0 Z " fill="#FEFEFE" transform="translate(590,907)"/>
<path d="M0 0 C0.66 0.33 1.32 0.66 2 1 C2.2575484 3.26232858 2.4062817 5.5374882 2.5 7.8125 C2.69777421 13.70136848 2.69777421 13.70136848 5 19 C7.91634129 19.2502157 7.91634129 19.2502157 11 19 C13.40119059 15.39821412 13.43771322 12.49133631 13.625 8.3125 C13.68300781 7.2596582 13.68300781 7.2596582 13.7421875 6.18554688 C13.8362334 4.45745345 13.9191968 2.72876325 14 1 C15.32 1 16.64 1 18 1 C18.08132187 3.56314499 18.14064175 6.12368418 18.1875 8.6875 C18.21263672 9.40873047 18.23777344 10.12996094 18.26367188 10.87304688 C18.32667231 15.47207891 17.88572296 18.37434807 15 22 C11.31106884 24.45928744 8.28358579 24.69305579 4 24 C0.55687286 21.8755173 -0.71617547 20.85147359 -2 17 C-2.1214813 14.46584364 -2.18510284 11.9713022 -2.1875 9.4375 C-2.19974609 8.75236328 -2.21199219 8.06722656 -2.22460938 7.36132812 C-2.22987533 5.57265888 -2.12200021 3.78451152 -2 2 C-1.34 1.34 -0.68 0.68 0 0 Z " fill="#FEFEFE" transform="translate(726,906)"/>
<path d="M0 0 C1.31677734 0.00966797 1.31677734 0.00966797 2.66015625 0.01953125 C4.9375 0.1875 4.9375 0.1875 6.9375 1.1875 C6.9375 2.5075 6.9375 3.8275 6.9375 5.1875 C5.99777344 5.06181641 5.99777344 5.06181641 5.0390625 4.93359375 C3.81316406 4.78083984 3.81316406 4.78083984 2.5625 4.625 C1.34433594 4.46837891 1.34433594 4.46837891 0.1015625 4.30859375 C-2.11149186 4.00512672 -2.11149186 4.00512672 -4.0625 5.1875 C-3.7325 6.1775 -3.4025 7.1675 -3.0625 8.1875 C-0.79466246 9.21265862 -0.79466246 9.21265862 1.875 10 C6.7345524 11.7816048 6.7345524 11.7816048 8.5625 15.4375 C8.9375 18.1875 8.9375 18.1875 7.0625 20.6875 C4.49170249 23.27302987 2.48162923 23.6274705 -1.125 23.75 C-4.68623271 23.58547211 -5.77786585 23.40436411 -8.6875 21.1875 C-9.14125 20.5275 -9.595 19.8675 -10.0625 19.1875 C-9.7325 18.5275 -9.4025 17.8675 -9.0625 17.1875 C-8.44761719 17.34347656 -7.83273437 17.49945312 -7.19921875 17.66015625 C-6.39097656 17.85480469 -5.58273437 18.04945313 -4.75 18.25 C-3.94949219 18.44722656 -3.14898438 18.64445313 -2.32421875 18.84765625 C0.09707179 19.38635554 0.09707179 19.38635554 2.9375 18.1875 C2.9375 17.1975 2.9375 16.2075 2.9375 15.1875 C2.23882813 15.00574219 1.54015625 14.82398438 0.8203125 14.63671875 C-0.08976563 14.38535156 -0.99984375 14.13398437 -1.9375 13.875 C-2.84242188 13.63136719 -3.74734375 13.38773438 -4.6796875 13.13671875 C-7.0625 12.1875 -7.0625 12.1875 -9.0625 9.1875 C-8.875 5.625 -8.875 5.625 -8.0625 2.1875 C-4.79122414 0.00664943 -3.78873277 -0.06137859 0 0 Z " fill="#FEFEFE" transform="translate(644.0625,906.8125)"/>
<path d="M0 0 C0.99386719 0.02707031 1.98773437 0.05414062 3.01171875 0.08203125 C4.15060547 0.13423828 4.15060547 0.13423828 5.3125 0.1875 C5.9725 1.5075 6.6325 2.8275 7.3125 4.1875 C4.21771121 5.21909626 2.78618607 5.16232862 -0.375 4.75 C-1.18324219 4.64816406 -1.99148438 4.54632812 -2.82421875 4.44140625 C-3.43910156 4.35761719 -4.05398438 4.27382813 -4.6875 4.1875 C-4.52789858 6.16303448 -4.52789858 6.16303448 -3.6875 8.1875 C-1.70006884 9.18158027 -1.70006884 9.18158027 0.6875 9.6875 C3.60404773 10.55131828 5.1282692 11.02494341 7.4375 13.0625 C8.61554622 15.92346939 8.41885396 17.3109797 7.3125 20.1875 C5.45815842 22.42816274 4.06770573 23.09865227 1.1875 23.4375 C-3.06122943 23.54930867 -5.93983907 23.32537021 -9.6875 21.1875 C-9.3575 19.8675 -9.0275 18.5475 -8.6875 17.1875 C-8.171875 17.3525 -7.65625 17.5175 -7.125 17.6875 C-3.95386124 18.33799 -0.91531666 18.2495734 2.3125 18.1875 C2.3125 17.1975 2.3125 16.2075 2.3125 15.1875 C1.60222656 14.91035156 0.89195312 14.63320313 0.16015625 14.34765625 C-0.75894531 13.98542969 -1.67804687 13.62320313 -2.625 13.25 C-3.54152344 12.89035156 -4.45804688 12.53070312 -5.40234375 12.16015625 C-7.6875 11.1875 -7.6875 11.1875 -8.6875 10.1875 C-9.15484854 3.87829465 -9.15484854 3.87829465 -7.52734375 1.47265625 C-4.95442212 -0.32456502 -3.10292567 -0.10951502 0 0 Z " fill="#FEFEFE" transform="translate(663.6875,906.8125)"/>
<path d="M0 0 C2.625 2 2.625 2 4 4 C3.01 4.66 2.02 5.32 1 6 C0.05125 5.67 -0.8975 5.34 -1.875 5 C-4.9393384 3.69952174 -4.9393384 3.69952174 -7.8125 4.8125 C-9.91381174 5.81911563 -9.91381174 5.81911563 -11 7 C-11.23790731 9.06664006 -11.23790731 9.06664006 -11.25 11.4375 C-11.27578125 12.24058594 -11.3015625 13.04367187 -11.328125 13.87109375 C-11.21984375 14.57363281 -11.1115625 15.27617188 -11 16 C-6.89592866 18.73604756 -3.88602075 18.32800361 0.875 17.5 C1.57625 17.335 2.2775 17.17 3 17 C3 18.32 3 19.64 3 21 C-1.31474641 23.44600137 -5.12834225 23.71334988 -10 23 C-13.46868763 20.93354779 -15.80891972 18.89808091 -17 15 C-17.7557317 8.30637636 -17.7557317 8.30637636 -15.94921875 5.18359375 C-11.31722516 -0.48684088 -7.01672872 -0.87143244 0 0 Z " fill="#FEFEFE" transform="translate(699,907)"/>
<path d="M0 0 C1.39456452 0.00667256 2.78911118 0.01863093 4.18359375 0.03515625 C4.89451172 0.03966797 5.60542969 0.04417969 6.33789062 0.04882812 C8.09899388 0.06064761 9.86005411 0.07858362 11.62109375 0.09765625 C11.62109375 1.41765625 11.62109375 2.73765625 11.62109375 4.09765625 C7.99109375 4.09765625 4.36109375 4.09765625 0.62109375 4.09765625 C0.29109375 5.74765625 -0.03890625 7.39765625 -0.37890625 9.09765625 C3.25109375 9.09765625 6.88109375 9.09765625 10.62109375 9.09765625 C10.62109375 10.41765625 10.62109375 11.73765625 10.62109375 13.09765625 C7.32109375 13.42765625 4.02109375 13.75765625 0.62109375 14.09765625 C0.62109375 15.41765625 0.62109375 16.73765625 0.62109375 18.09765625 C4.58109375 18.42765625 8.54109375 18.75765625 12.62109375 19.09765625 C12.95109375 20.08765625 13.28109375 21.07765625 13.62109375 22.09765625 C12.62109375 23.09765625 12.62109375 23.09765625 9.0234375 23.1953125 C7.53512508 23.18863845 6.04682943 23.17667808 4.55859375 23.16015625 C3.79998047 23.15564453 3.04136719 23.15113281 2.25976562 23.14648438 C0.38017504 23.13466305 -1.49937524 23.11672703 -3.37890625 23.09765625 C-3.57479226 19.45222205 -3.75921161 15.80629835 -3.94140625 12.16015625 C-3.99748047 11.11923828 -4.05355469 10.07832031 -4.11132812 9.00585938 C-4.15966797 8.01650391 -4.20800781 7.02714844 -4.2578125 6.0078125 C-4.30494385 5.09136963 -4.3520752 4.17492676 -4.40063477 3.23071289 C-4.36422846 -0.34324083 -3.6625934 0.1058553 0 0 Z " fill="#FEFEFE" transform="translate(619.37890625,906.90234375)"/>
<path d="M0 0 C0.87785156 0.01546875 1.75570312 0.0309375 2.66015625 0.046875 C4.9375 0.25 4.9375 0.25 6.9375 1.25 C6.6075 2.57 6.2775 3.89 5.9375 5.25 C3.91927083 4.95703125 1.90104167 4.6640625 -0.1171875 4.37109375 C-2.14390667 4.0815703 -2.14390667 4.0815703 -4.0625 5.25 C-3.7325 6.24 -3.4025 7.23 -3.0625 8.25 C-0.80205829 9.38678329 -0.80205829 9.38678329 1.875 10.25 C6.71943146 11.9228972 6.71943146 11.9228972 8.9375 15.25 C8.7888992 18.22201597 8.34032185 19.76325693 6.4375 22.0625 C2.69965866 23.83797464 -0.99166916 23.80185559 -5.0625 23.25 C-7.34375 22.23046875 -7.34375 22.23046875 -9.0625 21.25 C-8.7325 19.93 -8.4025 18.61 -8.0625 17.25 C-6.20625 17.806875 -6.20625 17.806875 -4.3125 18.375 C-0.92987382 19.23984427 -0.92987382 19.23984427 2.4375 18.375 C2.9325 18.00375 3.4275 17.6325 3.9375 17.25 C2.53328872 14.44157743 0.90621294 14.31741824 -2 13.25 C-6.84837699 11.46412301 -6.84837699 11.46412301 -9.0625 9.25 C-8.86988252 6.23232612 -8.64573808 4.04180107 -6.828125 1.57421875 C-4.45732391 -0.20388207 -2.93272817 -0.08638375 0 0 Z " fill="#FEFEFE" transform="translate(568.0625,906.75)"/>
<path d="M0 0 C0.99 0.33 1.98 0.66 3 1 C3.33 6.94 3.66 12.88 4 19 C6.64 19 9.28 19 12 19 C13.84566532 15.01606389 14.36022829 11.55623317 14.625 7.1875 C14.69976563 6.02605469 14.77453125 4.86460937 14.8515625 3.66796875 C14.90054688 2.78753906 14.94953125 1.90710938 15 1 C15.99 1 16.98 1 18 1 C19.52725024 13.78190973 19.52725024 13.78190973 18 20 C15.8091319 22.73858512 14.28959348 23.80000957 10.80859375 24.33984375 C7.21141292 24.48799782 4.71643447 24.3761281 1.5 22.6875 C-1.87568334 18.88985625 -1.14864009 14.15029757 -1.125 9.375 C-1.12886719 8.58609375 -1.13273438 7.7971875 -1.13671875 6.984375 C-1.12665394 1.12665394 -1.12665394 1.12665394 0 0 Z " fill="#FEFEFE" transform="translate(537,906)"/>
<path d="M0 0 C0.99 0 1.98 0 3 0 C3 6.27 3 12.54 3 19 C6.96 19 10.92 19 15 19 C15 20.32 15 21.64 15 23 C10.05 23 5.1 23 0 23 C-0.86197479 15.67321428 -1.4134491 8.38128255 -1 1 C-0.67 0.67 -0.34 0.34 0 0 Z " fill="#FFFEFF" transform="translate(707,907)"/>
<path d="M0 0 C0.99 0 1.98 0 3 0 C3 7.59 3 15.18 3 23 C2.01 23 1.02 23 0 23 C0 15.41 0 7.82 0 0 Z " fill="#FEFEFE" transform="translate(581,907)"/>
</svg>
